<?xml version="1.0" encoding="UTF-8" standalone="no"?>
<!-- Created with Inkscape (http://www.inkscape.org/) -->

<svg
   xmlns:dc="http://purl.org/dc/elements/1.1/"
   xmlns:cc="http://creativecommons.org/ns#"
   xmlns:rdf="http://www.w3.org/1999/02/22-rdf-syntax-ns#"
   xmlns:svg="http://www.w3.org/2000/svg"
   xmlns="http://www.w3.org/2000/svg"
   xmlns:xlink="http://www.w3.org/1999/xlink"
   version="1.2"
   width="744.09448"
   height="1052.3622"
   id="svg3324"
   xml:space="preserve"><metadata
     id="metadata3330"><rdf:RDF><cc:Work
         rdf:about=""><dc:format>image/svg+xml</dc:format><dc:type
           rdf:resource="http://purl.org/dc/dcmitype/StillImage" /><dc:title></dc:title></cc:Work></rdf:RDF></metadata><defs
     id="defs3328"><linearGradient
       id="linearGradient5902"><stop
         id="stop5904"
         style="stop-color:#ffffff;stop-opacity:1"
         offset="0" /><stop
         id="stop5906"
         style="stop-color:#ffffff;stop-opacity:0"
         offset="1" /></linearGradient><filter
       color-interpolation-filters="sRGB"
       id="filter5894"><feGaussianBlur
         id="feGaussianBlur5896"
         stdDeviation="1.2118405" /></filter><linearGradient
       x1="74.261642"
       y1="453.56268"
       x2="330.89346"
       y2="453.56268"
       id="linearGradient5908"
       xlink:href="#linearGradient5902"
       gradientUnits="userSpaceOnUse" /></defs><g
     transform="matrix(1.25,0,0,-1.25,0,1052.3622)"
     id="g3332"><g
       id="g3334"><g
         transform="matrix(1,0,0,-1,0,841.88977)"
         id="g3336"><path
           d="m 189.715,197.316 c 102.68,34.547 95.101,259.055 19.43,305.145 C 88.996,575.637 25.656,478.805 74.285,381.316 c 19.68,-39.453 -31.984,-173.121 115.43,-184 z"
           id="path3338"
           style="fill:none;stroke:#000000;stroke-width:0.80000001;stroke-linecap:butt;stroke-linejoin:miter;stroke-miterlimit:4;stroke-opacity:1;stroke-dasharray:none" /></g><g
         transform="matrix(1,0,0,-1,0,841.88977)"
         id="g3340"><path
           d="m 474.465,201.059 c 102.68,34.546 95.101,259.054 19.426,305.144 -120.145,73.176 -183.485,-23.656 -134.856,-121.144 19.68,-39.454 -31.984,-173.121 115.43,-184 z"
           id="path3342"
           style="fill:none;stroke:#000000;stroke-width:0.80000001;stroke-linecap:butt;stroke-linejoin:miter;stroke-miterlimit:4;stroke-opacity:1;stroke-dasharray:none" /></g><text
         transform="matrix(1,0,0,-1,206.85713,662.85717)"
         id="text3344"><tspan
           x="0"
           y="0"
           id="tspan3346"
           style="font-size:19.20000076px;font-variant:normal;font-weight:normal;writing-mode:lr-tb;fill:#000000;fill-opacity:1;fill-rule:nonzero;stroke:none;font-family:DejaVu Sans;-inkscape-font-specification:DejaVuSans">A</tspan><tspan
           x="291.42856"
           y="-26.285702"
           id="tspan3348"
           style="font-size:19.20000076px;font-variant:normal;font-weight:normal;writing-mode:lr-tb;fill:#000000;fill-opacity:1;fill-rule:nonzero;stroke:none;font-family:DejaVu Sans;-inkscape-font-specification:DejaVuSans">B</tspan></text>
<path
         d="m 172.57,677.714 8,0 0,-24 -8,0 0,24 z"
         id="path3350"
         style="fill:#ffffff;fill-opacity:1;fill-rule:nonzero;stroke:none" /><path
         d="m 163.43,718.859 13.715,0 0,-53.715 -13.715,0 0,53.715 z"
         id="path3352"
         style="fill:#000000;fill-opacity:1;fill-rule:nonzero;stroke:none" /><path
         d="m 171.539,638.859 -21.539,29.46 40.57,1.243 -9.515,-15.352 -9.516,-15.351 z"
         id="path3354"
         style="fill:#000000;fill-opacity:1;fill-rule:nonzero;stroke:none" /><path
         d="m 469.398,623.64 -10.347,16.515 -10.352,16.52 21.43,-0.695 21.426,-0.696 -11.078,-15.82 -11.079,-15.824 z"
         id="path3356"
         style="fill:#000000;fill-opacity:1;fill-rule:nonzero;stroke:none" /><path
         d="m 465.691,709.276 13.711,-0.277 -1.093,-53.703 -13.711,0.277 1.093,53.703 z"
         id="path3358"
         style="fill:#000000;fill-opacity:1;fill-rule:nonzero;stroke:none" /><g
         transform="matrix(1,0,0,-1,0,841.88977)"
         id="g3360"><path
           d="m 265.145,304.746 c 30.32,-37.051 80.929,-1.859 99.425,-2.285"
           id="path3362"
           style="fill:none;stroke:#000000;stroke-width:0.80000001;stroke-linecap:butt;stroke-linejoin:miter;stroke-miterlimit:4;stroke-opacity:1;stroke-dasharray:none" /></g><g
         transform="matrix(1,0,0,-1,0,841.88977)"
         id="g3364"><path
           d="m 265.145,371.031 c 26.417,-54.484 82.343,-2.871 98.285,-3.426"
           id="path3366"
           style="fill:none;stroke:#000000;stroke-width:0.80000001;stroke-linecap:butt;stroke-linejoin:miter;stroke-miterlimit:4;stroke-opacity:1;stroke-dasharray:none" /></g><g
         transform="matrix(1,0,0,-1,0,841.88977)"
         id="g3368"><path
           d="m 253.715,430.461 c 28.5,-21.961 74.047,0.949 89.14,1.144"
           id="path3370"
           style="fill:none;stroke:#000000;stroke-width:0.80000001;stroke-linecap:butt;stroke-linejoin:miter;stroke-miterlimit:4;stroke-opacity:1;stroke-dasharray:none" /></g><path
         d="m 369.004,539.749 -9.973,-5.613 -9.976,-5.61 -0.071,11.149 -0.066,11.148 10.043,-5.539 10.043,-5.535 z"
         id="path3372"
         style="fill:#000000;fill-opacity:1;fill-rule:nonzero;stroke:none" /><path
         d="m 365.473,476.644 -9.973,-5.61 -9.977,-5.613 -0.07,11.152 -0.066,11.149 10.043,-5.539 10.043,-5.539 z"
         id="path3374"
         style="fill:#000000;fill-opacity:1;fill-rule:nonzero;stroke:none" /><path
         d="m 346.043,410.359 -9.973,-5.61 -9.976,-5.613 -0.067,11.148 -0.07,11.149 10.043,-5.535 10.043,-5.539 z"
         id="path3376"
         style="fill:#000000;fill-opacity:1;fill-rule:nonzero;stroke:none" /><g
         transform="matrix(2.0121243,0.17813936,0.08154843,-1.0902869,-394.85784,812.39484)"
         id="g3378"><path
           d="m 380.57,251.031 c 56.032,83.77 8.571,172.114 -22.855,251.43"
           id="path3380"
           style="fill:none;stroke:#000000;stroke-width:0.80000001;stroke-linecap:butt;stroke-linejoin:miter;stroke-miterlimit:4;stroke-opacity:1;stroke-dasharray:none" /></g><text
         transform="matrix(0.87151692,0,0,-1,364.5907,475.4286)"
         id="text3382"><tspan
           x="0"
           y="0"
           id="tspan3384"
           style="font-size:19.19999886px;font-variant:normal;font-weight:normal;writing-mode:lr-tb;fill:#000000;fill-opacity:1;fill-rule:nonzero;stroke:none;font-family:DejaVu Sans;-inkscape-font-specification:DejaVuSans"> </tspan></text>
</g><flowRoot
       transform="matrix(0.8,0,0,-0.8,0,841.88976)"
       id="flowRoot3386"
       xml:space="preserve"
       style="font-size:40px;font-style:normal;font-weight:normal;line-height:125%;letter-spacing:0px;word-spacing:0px;fill:#000000;fill-opacity:1;stroke:none;font-family:Sans"><flowRegion
         id="flowRegion3388"><rect
           width="70.892662"
           height="59.864914"
           x="159.11464"
           y="324.53085"
           id="rect3390" /></flowRegion><flowPara
         id="flowPara3392">G<flowSpan
   id="flowSpan3394"
   style="font-size:20px">A</flowSpan></flowPara></flowRoot><flowRoot
       transform="matrix(0.8,0,0,-0.8,10.082512,836.8485)"
       id="flowRoot3396"
       xml:space="preserve"
       style="font-size:40px;font-style:normal;font-weight:normal;line-height:125%;letter-spacing:0px;word-spacing:0px;fill:#000000;fill-opacity:1;stroke:none;font-family:Sans"><flowRegion
         id="flowRegion3398"><rect
           width="59.864914"
           height="51.987953"
           x="556.11353"
           y="343.43558"
           id="rect3400" /></flowRegion><flowPara
         id="flowPara3402">G<flowSpan
   id="flowSpan3404"
   style="font-size:24px">B</flowSpan></flowPara></flowRoot><text
       x="462.11072"
       y="-395.80707"
       transform="scale(0.79507423,-1.2577442)"
       id="text3406"
       xml:space="preserve"
       style="font-size:25.44237709px;font-style:normal;font-weight:normal;line-height:125%;letter-spacing:0px;word-spacing:0px;fill:#000000;fill-opacity:1;stroke:none;font-family:Sans"><tspan
         x="462.11072"
         y="-395.80707"
         id="tspan3408">G<tspan
   id="tspan3410"
   style="font-size:15.26542664px">A</tspan> ∩ G<tspan
   id="tspan3414"
   style="font-size:15.26542664px">B</tspan></tspan></text>
<path
       d="m 151.79544,657.93974 c -33.65885,-4.40216 -59.767383,-26.08657 -71.113753,-59.06347 -5.617989,-16.32803 -7.380523,-31.70551 -5.942796,-51.84877 1.486346,-20.82442 4.580118,-33.14085 14.89208,-59.28599 9.726701,-24.66124 11.763839,-37.58007 11.763839,-74.60212 0,-44.13162 5.0863,-73.79734 16.92095,-98.69105 6.06246,-12.75215 9.12436,-16.96231 20.69718,-28.45896 10.82135,-10.75013 16.30402,-14.82012 26.97296,-20.02305 17.35364,-8.46287 41.99284,-15.63056 45.72294,-13.30107 1.99112,1.24347 3.2565,1.10072 4.91128,-0.55405 1.22601,-1.22601 6.53597,-2.67926 11.79991,-3.22945 9.11122,-0.95231 10.20604,-0.67066 22.79936,5.86539 37.69017,19.56156 64.89078,65.75842 75.50201,128.23076 4.41416,25.98787 5.53883,73.61504 2.34368,99.24973 -2.456,19.70455 -8.1671,47.2965 -10.76068,51.98795 -0.95803,1.73293 -1.57694,3.97215 -1.37535,4.97604 0.64077,3.191 -8.76319,27.06214 -16.07789,40.81237 -12.96143,24.36497 -24.62358,37.249 -44.54848,49.21598 -35.4436,21.28759 -76.03747,32.44324 -104.50724,28.71976 l 0,0 z m 30.33824,-293.16168 c 5.69662,-1.58202 5.90772,-1.89133 5.90772,-8.65587 l 0,-7.01521 -6.30157,0 c -4.55114,0 -6.30157,0.65641 -6.30157,2.36308 0,1.31283 1.40035,2.36309 3.15078,2.36309 4.12643,0 4.2382,5.64973 0.133,6.72326 -4.48968,1.17408 -10.11439,-2.26504 -11.87027,-7.25783 -3.30328,-9.39285 7.10168,-17.07883 16.39066,-12.10752 2.74236,1.46766 3.22358,1.26046 3.22358,-1.38804 0,-4.14301 -1.96093,-5.14128 -10.34823,-5.26808 -10.28548,-0.15549 -14.85805,4.57148 -14.85805,15.35973 0,10.12246 3.32112,13.95224 14.17853,16.35009 0.43323,0.0957 3.44617,-0.56433 6.69542,-1.4667 z m 11.42159,-1.49255 c 1.38076,-2.23411 6.69064,-1.95638 7.53,0.39385 0.38682,1.08308 1.25717,1.45335 1.93412,0.82281 1.71395,-1.59642 -3.77785,-15.39519 -6.12715,-15.39519 -1.05397,0 -2.86785,2.65847 -4.03083,5.90772 -1.16298,3.24924 -2.44463,6.79388 -2.84811,7.87696 -0.86992,2.33514 2.13564,2.66934 3.54197,0.39385 z"
       transform="matrix(0.8,0,0,-0.8,0,841.88976)"
       id="path3416"
       style="fill:url(#linearGradient5908);stroke-width:0.1;stroke-miterlimit:4;stroke-dasharray:none" /><flowRoot
       transform="matrix(0.8,0,0,-0.8,26.466594,878.43887)"
       id="flowRoot3422"
       xml:space="preserve"
       style="font-size:48px;font-style:normal;font-weight:normal;line-height:125%;letter-spacing:0px;word-spacing:0px;fill:#000000;fill-opacity:1;stroke:none;font-family:Sans"><flowRegion
         id="flowRegion3424"><rect
           width="97.674332"
           height="74.043449"
           x="300.89996"
           y="803.4502"
           id="rect3426"
           style="font-size:48px" /></flowRegion><flowPara
         id="flowPara3428">G</flowPara></flowRoot><rect
       width="546.66125"
       height="51.987949"
       x="122.88061"
       y="108.70208"
       transform="matrix(0.8,0,0,-0.8,0,841.88976)"
       id="rect3430"
       style="opacity:0.16049386;fill:#000000;fill-opacity:1;stroke-width:3;stroke-miterlimit:4;stroke-dasharray:none;filter:url(#filter5894)" /><text
       x="308.77695"
       y="-727.20117"
       transform="scale(1,-1)"
       id="text5898"
       xml:space="preserve"
       style="font-size:38.40000153px;font-style:normal;font-weight:normal;line-height:125%;letter-spacing:0px;word-spacing:0px;fill:#000000;fill-opacity:1;stroke:none;font-family:Sans"><tspan
         x="308.77695"
         y="-727.20117"
         id="tspan5900">α</tspan></text>
</g></svg>